<svg width="161" height="65" viewBox="0 0 161 65" fill="none" xmlns="http://www.w3.org/2000/svg">
<rect x="12.5" y="0.5" width="148" height="64" rx="5.24359" fill="white" stroke="#3D0D75"/>
<mask id="mask0_27_279" style="mask-type:alpha" maskUnits="userSpaceOnUse" x="16" y="3" width="44" height="43">
<rect x="17.2308" y="4.23074" width="41.5385" height="40.5385" rx="3.69231" fill="white" stroke="#5C5C5C" stroke-width="2.46154"/>
</mask>
<g mask="url(#mask0_27_279)">
<path d="M62.403 1.38052H13.5141V48.3455H62.403V1.38052Z" fill="#FFCE00"/>
<path d="M29.3095 38.835V35.2086H30.291V36.5816H30.3611C31.3266 36.5816 31.278 35.8874 31.278 35.2086H32.2701C32.2701 35.9495 32.2916 36.6336 31.542 37.0945L32.5666 38.6902V38.8355H31.4934L30.6626 37.4317C30.5334 37.4524 30.4147 37.4524 30.2905 37.4524V38.8355H29.309L29.3095 38.835Z" fill="#3D0D75"/>
<path d="M32.8465 35.2086V36.0164H33.2887V38.0215H32.809V38.835H34.7235V38.0215H34.2437V36.0164H34.6859V35.2086H32.8465Z" fill="#3D0D75"/>
<path d="M35.354 35.1927V38.835H36.3515V37.0531L38.2555 38.8403H38.6006V35.2086H37.6135V36.9857L35.7045 35.1927H35.354Z" fill="#3D0D75"/>
<path d="M41.2638 35.1615C42.024 35.1668 42.8172 35.5449 43.0005 36.4464H42.051C41.8948 36.1357 41.6464 36.0111 41.2638 36.0111C40.6543 36.0111 40.3253 36.4671 40.3253 37.0213C40.3253 37.6227 40.6919 38.0162 41.2638 38.0162C41.6519 38.0162 41.9003 37.9176 42.0725 37.5707H41.2688V36.7678H43.0541C43.0761 37.1305 43.0761 37.4774 42.9464 37.83C42.677 38.5863 41.9599 38.8764 41.2638 38.8764C40.3038 38.8764 39.3332 38.2596 39.3277 37.0213C39.3332 35.7835 40.3038 35.1615 41.2638 35.1615Z" fill="#3D0D75"/>
<path d="M45.6692 37.768C45.6692 37.514 45.3567 37.4572 44.9791 37.4365C44.1593 37.3797 43.62 37.1103 43.6094 36.3228C43.5769 34.7583 46.511 34.7583 46.489 36.3228H45.5725C45.5725 35.8412 44.5584 35.8826 44.5264 36.3122C44.5049 36.5869 44.7853 36.6442 45.1248 36.6802C45.8745 36.7582 46.6077 36.8669 46.6077 37.7737C46.6077 39.2968 43.5338 39.3228 43.5554 37.7271H44.4883C44.4883 38.1884 45.6692 38.1932 45.6692 37.7684" fill="#3D0D75"/>
<path d="M30.3025 40.3085C30.1883 40.2542 30.0667 40.2272 29.9359 40.2272C29.8658 40.2272 29.8118 40.2417 29.7742 40.2705C29.7366 40.2994 29.7176 40.3379 29.7176 40.386C29.7176 40.4711 29.7822 40.5317 29.9109 40.5664C30.0862 40.6135 30.2099 40.6703 30.282 40.7377C30.3541 40.805 30.3902 40.8926 30.3902 40.9994C30.3902 41.1235 30.3476 41.2183 30.2625 41.2837C30.1773 41.3491 30.0541 41.3818 29.8924 41.3818C29.7306 41.3818 29.5809 41.3429 29.4507 41.2644L29.5163 41.0624C29.6365 41.1403 29.7637 41.1798 29.8979 41.1798C29.972 41.1798 30.0276 41.1644 30.0662 41.1341C30.1042 41.1033 30.1233 41.0595 30.1233 41.0032C30.1233 40.9513 30.1077 40.9104 30.0772 40.8805C30.0466 40.8502 29.991 40.8242 29.9109 40.8012C29.7507 40.7564 29.6345 40.7006 29.5624 40.6333C29.4902 40.5659 29.4542 40.4836 29.4542 40.386C29.4542 40.2777 29.4957 40.1911 29.5794 40.1262C29.6625 40.0613 29.7792 40.029 29.9299 40.029C30.0807 40.029 30.2274 40.0574 30.3566 40.1137L30.302 40.3085H30.3025Z" fill="#3D0D75"/>
<path d="M30.6405 40.0555C30.7708 40.0377 30.9085 40.0286 31.0537 40.0286C31.2415 40.0286 31.3827 40.0642 31.4764 40.1358C31.5705 40.2075 31.6171 40.3114 31.6171 40.4471C31.6171 40.5977 31.5715 40.7112 31.4809 40.7882C31.3902 40.8652 31.2555 40.9036 31.0777 40.9036C31.0051 40.9036 30.9455 40.9012 30.8995 40.8964V41.364H30.6401V40.0555H30.6405ZM30.9 40.7021C30.9475 40.7093 30.9986 40.7131 31.0542 40.7131C31.1559 40.7131 31.233 40.692 31.2861 40.6492C31.3392 40.6063 31.3657 40.5457 31.3657 40.4663C31.3657 40.3061 31.2615 40.2263 31.0537 40.2263C30.9971 40.2263 30.946 40.2301 30.8995 40.2369V40.7026L30.9 40.7021Z" fill="#3D0D75"/>
<path d="M31.9231 40.2119C32.0478 40.0897 32.214 40.0286 32.4219 40.0286C32.6297 40.0286 32.796 40.0897 32.9206 40.2119C33.0453 40.3341 33.1074 40.4986 33.1074 40.7054C33.1074 40.9123 33.0453 41.0768 32.9206 41.199C32.796 41.3212 32.6297 41.3823 32.4219 41.3823C32.214 41.3823 32.0478 41.3212 31.9231 41.199C31.7984 41.0768 31.7363 40.9123 31.7363 40.7054C31.7363 40.4986 31.7984 40.3341 31.9231 40.2119ZM32.1174 41.0509C32.1925 41.1331 32.2942 41.1745 32.4219 41.1745C32.5496 41.1745 32.6512 41.1331 32.7263 41.0509C32.8015 40.9686 32.839 40.8531 32.839 40.705C32.839 40.5568 32.8015 40.4418 32.7263 40.3595C32.6512 40.2773 32.5496 40.2359 32.4219 40.2359C32.2942 40.2359 32.1925 40.2773 32.1174 40.3595C32.0423 40.4418 32.0047 40.5573 32.0047 40.705C32.0047 40.8527 32.0423 40.9681 32.1174 41.0509Z" fill="#3D0D75"/>
<path d="M33.5792 40.8498V41.364H33.3198V40.0555C33.4475 40.0372 33.5852 40.0286 33.7329 40.0286C33.9172 40.0286 34.0549 40.0613 34.1461 40.1267C34.2372 40.1921 34.2833 40.2845 34.2833 40.4038C34.2833 40.4904 34.2593 40.5664 34.2112 40.6314C34.1631 40.6963 34.0975 40.7415 34.0149 40.7665V40.7699C34.075 40.8036 34.127 40.8753 34.1706 40.9845L34.3208 41.3636H34.0504L33.9077 40.9902C33.8852 40.9325 33.8596 40.8945 33.8306 40.8767C33.802 40.8584 33.7525 40.8498 33.6823 40.8498H33.5792ZM33.5792 40.6588H33.6899C33.9127 40.6588 34.0244 40.5823 34.0244 40.4298C34.0244 40.2936 33.9212 40.2258 33.7144 40.2258C33.6643 40.2258 33.6192 40.2297 33.5792 40.2364V40.6588Z" fill="#3D0D75"/>
<path d="M35.4842 40.0468V40.2561H35.0916V41.364H34.8246V40.2561H34.432V40.0468H35.4842Z" fill="#3D0D75"/>
<path d="M36.4933 40.3085C36.3791 40.2542 36.2569 40.2272 36.1267 40.2272C36.0566 40.2272 36.0025 40.2417 35.9649 40.2705C35.9274 40.2994 35.9084 40.3379 35.9084 40.386C35.9084 40.4711 35.973 40.5317 36.1017 40.5664C36.2769 40.6135 36.4006 40.6703 36.4727 40.7377C36.5448 40.805 36.5809 40.8926 36.5809 40.9994C36.5809 41.1235 36.5383 41.2183 36.4532 41.2837C36.3681 41.3491 36.2449 41.3818 36.0831 41.3818C35.9214 41.3818 35.7716 41.3429 35.6414 41.2644L35.707 41.0624C35.8272 41.1403 35.9544 41.1798 36.0886 41.1798C36.1627 41.1798 36.2183 41.1644 36.2569 41.1341C36.295 41.1033 36.314 41.0595 36.314 41.0032C36.314 40.9513 36.2985 40.9104 36.2679 40.8805C36.2374 40.8502 36.1818 40.8242 36.1017 40.8012C35.9414 40.7564 35.8252 40.7006 35.7531 40.6333C35.681 40.5659 35.6449 40.4836 35.6449 40.386C35.6449 40.2777 35.6865 40.1911 35.7696 40.1262C35.8528 40.0613 35.9695 40.029 36.1202 40.029C36.2709 40.029 36.4177 40.0574 36.5469 40.1137L36.4923 40.3085H36.4933Z" fill="#3D0D75"/>
<path d="M37.3086 41.364L37.7838 40.0464H38.0657L38.543 41.364H38.2611L38.1634 41.0465H37.6806L37.581 41.364H37.3086ZM37.7387 40.8536H38.1033L37.923 40.2691H37.9195L37.7392 40.8536H37.7387Z" fill="#3D0D75"/>
<path d="M39.3372 40.2325C39.196 40.2325 39.0828 40.2749 38.9992 40.36C38.9151 40.4447 38.8735 40.5602 38.8735 40.7054C38.8735 40.8507 38.9166 40.9647 39.0032 41.0504C39.0898 41.1355 39.201 41.1783 39.3377 41.1783C39.4519 41.1783 39.5631 41.1452 39.6723 41.0792L39.7514 41.2649C39.6247 41.3429 39.479 41.3823 39.3137 41.3823C39.0994 41.3823 38.9281 41.3212 38.7989 41.199C38.6697 41.0768 38.6056 40.9123 38.6056 40.7054C38.6056 40.4986 38.6687 40.3326 38.7954 40.2109C38.9221 40.0892 39.0949 40.0286 39.3137 40.0286C39.479 40.0286 39.6247 40.0675 39.7514 40.1459L39.6723 40.3316C39.5631 40.2653 39.4519 40.2325 39.3377 40.2325" fill="#3D0D75"/>
<path d="M39.8896 41.364L40.3649 40.0464H40.6468L41.1241 41.364H40.8421L40.7445 41.0465H40.2617L40.162 41.364H39.8896ZM40.3203 40.8536H40.6849L40.5046 40.2691H40.5011L40.3208 40.8536H40.3203Z" fill="#3D0D75"/>
<path d="M42.4206 40.6876C42.4206 40.9128 42.3585 41.0845 42.2338 41.2038C42.1091 41.3231 41.9318 41.3828 41.701 41.3828C41.5668 41.3828 41.4416 41.3736 41.3254 41.3558V40.0565C41.4421 40.0382 41.5673 40.0295 41.701 40.0295C41.9303 40.0295 42.1076 40.0872 42.2328 40.2017C42.358 40.3167 42.4206 40.4788 42.4206 40.6881M42.1707 40.6876C42.1707 40.3831 42.0184 40.2311 41.714 40.2311C41.6679 40.2311 41.6243 40.2344 41.5843 40.2417V41.1692C41.6243 41.1764 41.6674 41.1803 41.714 41.1803C41.8667 41.1803 41.9809 41.1398 42.057 41.0595C42.1326 40.9787 42.1707 40.855 42.1707 40.6876Z" fill="#3D0D75"/>
<path d="M42.8958 40.2508V40.5736H43.4462V40.767H42.8958V41.1605H43.4837V41.364H42.6329V40.0468H43.4837V40.2508H42.8958Z" fill="#3D0D75"/>
<path d="M44.8574 40.4745H44.8534L44.5529 41.034H44.3161L44.0156 40.4745H44.0121V41.364H43.7617V40.0468H44.0251L44.4327 40.8228H44.4362L44.8439 40.0468H45.1148V41.364H44.8574V40.4745Z" fill="#3D0D75"/>
<path d="M45.6126 40.0468L45.9206 40.6371H45.9246L46.2326 40.0468H46.5295L46.0558 40.8411V41.364H45.7819V40.8411L45.3081 40.0468H45.6126Z" fill="#3D0D75"/>
<path d="M39.6482 22.2002C39.6482 22.2002 41.7736 22.3469 42.6289 20.3206C42.6289 20.3206 40.6723 19.8583 39.5886 20.6103C39.5886 20.6103 38.4383 21.6657 39.0929 24.7543C39.1239 24.901 39.1575 25.0511 39.1975 25.2079C39.1975 25.2079 39.1785 25.0294 39.17 24.7543C39.149 24.1024 39.183 22.9016 39.6482 22.2002Z" fill="#3D0D75"/>
<path d="M36.2339 20.6103C35.1507 19.8583 33.1941 20.3211 33.1941 20.3211C34.0489 22.347 36.1743 22.2007 36.1743 22.2007C36.6395 22.9021 36.6736 24.1024 36.6525 24.7548C36.644 25.0295 36.625 25.2084 36.625 25.2084C36.6645 25.0516 36.6986 24.9015 36.7296 24.7548C37.3842 21.6658 36.2339 20.6107 36.2339 20.6107" fill="#3D0D75"/>
<path d="M43.297 18.1067C43.7932 17.3678 44.2965 16.6336 44.7758 15.887C45.4088 14.9008 46.172 14.1186 47.5121 14.1561C47.0309 13.1516 45.5595 12.9457 44.1984 13.6644C43.7076 13.3262 43.1683 13.2762 42.663 13.5889C42.4486 13.7217 42.3415 14.0146 42.1862 14.2355C42.2273 14.2629 42.2688 14.2893 42.3099 14.3168C42.3675 14.2927 42.4246 14.2662 42.4827 14.2446C42.9449 14.0738 43.2915 14.1667 43.4883 14.5126C43.6701 14.8315 43.5534 15.263 43.2183 15.5098C42.707 15.887 41.8777 15.6417 41.5908 15.0278C41.3199 14.4491 41.5292 13.7481 42.0921 13.3161C42.1968 13.2363 42.363 13.1242 42.3575 13.0347C42.3269 12.5363 42.2523 12.0398 42.1882 11.4972C42.0695 11.5717 42.0255 11.5914 41.9919 11.6222C41.7415 11.8435 41.5082 12.0874 41.2392 12.2856C40.9538 12.4954 40.8932 12.6989 41.0224 13.0347C41.2472 13.6178 41.087 14.1003 40.6493 14.4178C39.9803 14.9032 39.0808 14.7877 38.6281 14.1575C38.216 13.586 38.4594 12.7802 39.173 12.3568C39.2276 12.3246 39.2852 12.2962 39.3413 12.265C39.7033 12.0615 39.7434 11.8551 39.4239 11.5799C39.2045 11.3913 38.9326 11.2576 38.6662 11.0878C38.887 10.9078 39.0919 10.7404 39.3047 10.5667C38.8615 9.82011 38.4418 9.11388 37.9846 8.34464C37.6401 8.92386 37.3411 9.41937 37.0496 9.91969C36.6791 10.5557 36.6821 10.5566 37.251 11.0497C37.269 11.0651 37.2675 11.0998 37.281 11.1426C37.1803 11.1893 37.0787 11.233 36.9785 11.2821C36.2193 11.6574 36.1938 11.9498 36.8809 12.4011C37.6306 12.8937 37.7588 13.8208 37.1513 14.3663C36.6871 14.7839 36.0055 14.8373 35.4446 14.4991C34.9048 14.1739 34.745 13.6938 34.9338 13.0361C34.9804 12.8735 35.046 12.6248 34.9629 12.5348C34.6248 12.1692 34.2327 11.8498 33.779 11.4385C33.7665 12.2746 33.2547 13.0154 34.1681 13.6394C34.6008 13.9348 34.5908 14.5304 34.3754 15.0288C34.1977 15.4406 33.8391 15.6469 33.3889 15.6859C32.9757 15.7215 32.6127 15.5536 32.4995 15.1822C32.4259 14.9407 32.4814 14.5943 32.6197 14.3779C32.83 14.0488 33.1986 14.1032 33.5336 14.2643C33.5817 14.2879 33.6363 14.3009 33.7049 14.3249C33.6458 13.6947 33.2532 13.2603 32.6432 13.4422C31.8645 13.675 31.2425 13.3238 30.5484 13.2738C30.0972 13.2406 29.6134 13.332 29.1798 13.4705C28.8898 13.5634 28.662 13.8366 28.4061 14.0296C28.4196 14.0724 28.4331 14.1152 28.4471 14.158C29.5218 14.1296 30.288 14.6189 30.8469 15.4348C31.1318 15.8504 31.3792 16.2897 31.6622 16.7068C31.9912 17.1907 32.3347 17.6656 32.6783 18.1481C30.3281 18.9568 29.6059 17.5487 29.6059 17.5487C29.6059 20.4048 29.9505 22.7448 30.4993 24.6619C30.9806 25.0588 31.4804 25.3508 31.9516 25.4061C31.9516 25.4061 31.5926 25.8396 31.0242 26.2244C33.2371 31.8954 37.3176 33.0365 37.8734 33.1674V33.1813C37.8734 33.1813 37.885 33.1794 37.906 33.1746L37.938 33.1674C38.4994 33.037 42.652 31.893 44.8915 26.186C44.3647 25.8117 44.0346 25.4061 44.0346 25.4061C44.4743 25.3532 44.9406 25.0881 45.3913 24.7211C45.9572 22.7934 46.3137 20.4342 46.3137 17.5487C46.3137 17.5487 45.4889 18.7451 43.298 18.1086M40.1655 31.0997C40.1655 31.0997 39.837 31.576 37.915 31.5774H37.9075C35.985 31.576 35.657 31.0997 35.657 31.0997C35.6449 30.5311 35.4827 30.0389 35.2428 29.618C35.5428 29.4549 36.2804 29.1898 37.9115 29.1893C39.5426 29.1898 40.2802 29.4549 40.5802 29.618C40.3398 30.0389 40.1776 30.5311 40.166 31.0997M41.7065 24.7538C40.9964 24.2482 40.5391 23.5266 40.3904 23.2692C40.3984 23.6309 40.4445 24.1688 40.6052 24.7538C40.8922 25.7992 41.5502 26.9966 43.0306 27.6177C43.0306 27.6177 41.7355 28.093 40.8867 29.1643V29.1634C39.0222 29.1691 38.1293 27.5551 37.9445 27.176C38.0622 26.9706 38.4829 26.3433 39.4149 25.9666C39.4149 25.9666 39.2847 25.5779 39.197 25.2079C39.197 25.2079 38.6522 25.5432 37.911 25.5447C37.1703 25.5432 36.6255 25.2079 36.6255 25.2079C36.5373 25.5779 36.4071 25.9666 36.4071 25.9666C37.3391 26.3433 37.7598 26.9706 37.8774 27.176C37.6932 27.5551 36.8003 29.1691 34.9353 29.1634V29.1643C34.0865 28.0934 32.7919 27.6177 32.7919 27.6177C34.2723 26.9971 34.9298 25.7997 35.2173 24.7538C35.3785 24.1688 35.4241 23.6305 35.4321 23.2692C35.2834 23.527 34.8267 24.2482 34.116 24.7538C33.3123 23.7748 32.2957 23.0354 31.4498 22.5293C31.7613 19.3599 34.5131 16.8751 37.8809 16.8237V16.8222C37.891 16.8222 37.901 16.8222 37.9115 16.8232C37.9215 16.8227 37.9315 16.8222 37.9421 16.8222V16.8237C41.3104 16.8747 44.0622 19.3599 44.3732 22.5293C43.5278 23.0354 42.5107 23.7743 41.7075 24.7538" fill="#3D0D75"/>
</g>
<rect x="16" y="48" width="140" height="13" rx="4.92308" fill="#3D0D75"/>
<path d="M71.0186 52.856C70.8159 52.632 70.5759 52.456 70.2986 52.328C70.0212 52.2 69.7412 52.136 69.4586 52.136C69.1812 52.136 68.9199 52.1893 68.6746 52.296C68.4346 52.3973 68.2212 52.5413 68.0346 52.728C67.8532 52.9147 67.7119 53.1333 67.6106 53.384C67.5092 53.6293 67.4586 53.896 67.4586 54.184C67.4586 54.4667 67.5092 54.7333 67.6106 54.984C67.7119 55.2293 67.8532 55.4453 68.0346 55.632C68.2212 55.8187 68.4346 55.9653 68.6746 56.072C68.9199 56.1787 69.1812 56.232 69.4586 56.232C69.7412 56.232 70.0186 56.1733 70.2906 56.056C70.5626 55.9333 70.8052 55.768 71.0186 55.56L71.5786 56.144C71.3919 56.3307 71.1786 56.4933 70.9386 56.632C70.7039 56.7707 70.4559 56.8773 70.1946 56.952C69.9386 57.0267 69.6772 57.064 69.4106 57.064C68.9999 57.064 68.6186 56.992 68.2666 56.848C67.9146 56.6987 67.6052 56.4933 67.3386 56.232C67.0772 55.9707 66.8719 55.6667 66.7226 55.32C66.5732 54.968 66.4986 54.592 66.4986 54.192C66.4986 53.792 66.5732 53.4213 66.7226 53.08C66.8719 52.7333 67.0799 52.4293 67.3466 52.168C67.6186 51.9067 67.9306 51.704 68.2826 51.56C68.6399 51.416 69.0266 51.344 69.4426 51.344C69.7092 51.344 69.9706 51.3787 70.2266 51.448C70.4826 51.5173 70.7252 51.616 70.9546 51.744C71.1839 51.872 71.3892 52.0267 71.5706 52.208L71.0186 52.856ZM72.5247 51.064H73.4447V57H72.5247V51.064ZM74.8441 52.752H75.7561V57H74.8441V52.752ZM75.3001 51C75.4547 51 75.5827 51.0507 75.6841 51.152C75.7854 51.2533 75.8361 51.3813 75.8361 51.536C75.8361 51.6853 75.7854 51.8133 75.6841 51.92C75.5827 52.0213 75.4547 52.072 75.3001 52.072C75.1507 52.072 75.0227 52.0213 74.9161 51.92C74.8147 51.8133 74.7641 51.6853 74.7641 51.536C74.7641 51.3813 74.8147 51.2533 74.9161 51.152C75.0227 51.0507 75.1507 51 75.3001 51ZM80.1175 53.968C79.9682 53.8133 79.7922 53.6933 79.5895 53.608C79.3868 53.5227 79.1575 53.48 78.9015 53.48C78.6562 53.48 78.4375 53.5387 78.2455 53.656C78.0535 53.7733 77.9042 53.9387 77.7975 54.152C77.6908 54.36 77.6375 54.6027 77.6375 54.88C77.6375 55.1573 77.6908 55.4027 77.7975 55.616C77.9042 55.824 78.0535 55.9893 78.2455 56.112C78.4375 56.2293 78.6562 56.288 78.9015 56.288C79.1682 56.288 79.4082 56.2453 79.6215 56.16C79.8348 56.0693 80.0135 55.9387 80.1575 55.768L80.6695 56.272C80.4775 56.512 80.2268 56.6987 79.9175 56.832C79.6135 56.9653 79.2615 57.032 78.8615 57.032C78.4402 57.032 78.0668 56.9413 77.7415 56.76C77.4215 56.5787 77.1708 56.328 76.9895 56.008C76.8082 55.6827 76.7175 55.3067 76.7175 54.88C76.7175 54.4533 76.8082 54.08 76.9895 53.76C77.1708 53.4347 77.4215 53.1813 77.7415 53C78.0668 52.8133 78.4402 52.72 78.8615 52.72C79.2455 52.72 79.5842 52.7787 79.8775 52.896C80.1762 53.008 80.4242 53.168 80.6215 53.376L80.1175 53.968ZM81.6731 51.064H82.5931V57H81.6731V51.064ZM84.4731 52.752H85.5291L82.5211 55.872V54.776L84.4731 52.752ZM83.8651 54.264L85.6491 57H84.5611L83.1851 54.816L83.8651 54.264ZM91.7472 54.6C91.7472 54.2693 91.6565 54.0107 91.4752 53.824C91.2939 53.632 91.0432 53.536 90.7232 53.536C90.3445 53.5413 90.0459 53.6747 89.8272 53.936C89.6139 54.1973 89.5072 54.5227 89.5072 54.912H89.2512C89.2512 54.384 89.3259 53.96 89.4752 53.64C89.6245 53.32 89.8352 53.088 90.1072 52.944C90.3845 52.7947 90.7099 52.72 91.0832 52.72C91.4139 52.72 91.6965 52.7867 91.9312 52.92C92.1712 53.0533 92.3525 53.2427 92.4752 53.488C92.6032 53.728 92.6672 54.0187 92.6672 54.36V57H91.7472V54.6ZM88.5872 51.064H89.5072V57H88.5872V51.064ZM96.8428 54.568C96.8321 54.328 96.7761 54.1253 96.6748 53.96C96.5788 53.7893 96.4428 53.6587 96.2668 53.568C96.0908 53.472 95.8881 53.424 95.6588 53.424C95.4028 53.424 95.1788 53.4827 94.9868 53.6C94.8001 53.7173 94.6534 53.8827 94.5468 54.096C94.4401 54.304 94.3868 54.5493 94.3868 54.832C94.3868 55.136 94.4428 55.4 94.5548 55.624C94.6721 55.848 94.8321 56.0213 95.0348 56.144C95.2428 56.2667 95.4801 56.328 95.7468 56.328C96.2214 56.328 96.6214 56.16 96.9468 55.824L97.4348 56.312C97.2268 56.5413 96.9734 56.72 96.6748 56.848C96.3761 56.9707 96.0428 57.032 95.6748 57.032C95.2374 57.032 94.8561 56.9413 94.5308 56.76C94.2054 56.5787 93.9521 56.328 93.7708 56.008C93.5894 55.6827 93.4988 55.3067 93.4988 54.88C93.4988 54.4533 93.5894 54.08 93.7708 53.76C93.9521 53.4347 94.2054 53.1813 94.5308 53C94.8561 52.8187 95.2294 52.7253 95.6508 52.72C96.1521 52.72 96.5548 52.824 96.8588 53.032C97.1628 53.2347 97.3788 53.5227 97.5068 53.896C97.6348 54.2693 97.6801 54.712 97.6428 55.224H94.2428V54.568H96.8428ZM100.994 53.552C100.69 53.536 100.426 53.5893 100.202 53.712C99.9832 53.8293 99.8125 53.9947 99.6899 54.208C99.5725 54.4213 99.5139 54.6667 99.5139 54.944L99.2579 54.912C99.2579 54.4373 99.3272 54.0373 99.4659 53.712C99.6045 53.3867 99.8045 53.1413 100.066 52.976C100.327 52.8053 100.637 52.72 100.994 52.72V53.552ZM98.6019 52.752H99.5219V57H98.6019V52.752ZM104.694 54.568C104.684 54.328 104.628 54.1253 104.526 53.96C104.43 53.7893 104.294 53.6587 104.118 53.568C103.942 53.472 103.74 53.424 103.51 53.424C103.254 53.424 103.03 53.4827 102.838 53.6C102.652 53.7173 102.505 53.8827 102.398 54.096C102.292 54.304 102.238 54.5493 102.238 54.832C102.238 55.136 102.294 55.4 102.406 55.624C102.524 55.848 102.684 56.0213 102.886 56.144C103.094 56.2667 103.332 56.328 103.598 56.328C104.073 56.328 104.473 56.16 104.798 55.824L105.286 56.312C105.078 56.5413 104.825 56.72 104.526 56.848C104.228 56.9707 103.894 57.032 103.526 57.032C103.089 57.032 102.708 56.9413 102.382 56.76C102.057 56.5787 101.804 56.328 101.622 56.008C101.441 55.6827 101.35 55.3067 101.35 54.88C101.35 54.4533 101.441 54.08 101.622 53.76C101.804 53.4347 102.057 53.1813 102.382 53C102.708 52.8187 103.081 52.7253 103.502 52.72C104.004 52.72 104.406 52.824 104.71 53.032C105.014 53.2347 105.23 53.5227 105.358 53.896C105.486 54.2693 105.532 54.712 105.494 55.224H102.094V54.568H104.694Z" fill="white"/>
<path d="M64.946 8.3H66.42V12.249L69.896 8.3H71.634L66.42 14.031V16H64.946V8.3ZM68.532 11.369L71.821 16H70.05L67.553 12.546L68.532 11.369ZM72.6524 10.137H74.0824V16H72.6524V10.137ZM73.3564 7.64C73.5911 7.64 73.7854 7.717 73.9394 7.871C74.0934 8.025 74.1704 8.21933 74.1704 8.454C74.1704 8.68133 74.0934 8.87567 73.9394 9.037C73.7854 9.191 73.5911 9.268 73.3564 9.268C73.1291 9.268 72.9384 9.191 72.7844 9.037C72.6304 8.87567 72.5534 8.68133 72.5534 8.454C72.5534 8.21933 72.6304 8.025 72.7844 7.871C72.9384 7.717 73.1291 7.64 73.3564 7.64ZM79.9126 12.722C79.9126 12.2967 79.7953 11.963 79.5606 11.721C79.3333 11.479 79.0143 11.358 78.6036 11.358C78.127 11.358 77.7493 11.5267 77.4706 11.864C77.1993 12.194 77.0636 12.612 77.0636 13.118H76.6786C76.6786 12.3993 76.7776 11.82 76.9756 11.38C77.181 10.9327 77.4706 10.6063 77.8446 10.401C78.226 10.1883 78.6696 10.082 79.1756 10.082C79.6303 10.082 80.019 10.1737 80.3416 10.357C80.6643 10.5403 80.9136 10.8007 81.0896 11.138C81.2656 11.468 81.3536 11.8677 81.3536 12.337V16H79.9126V12.722ZM75.6336 10.137H77.0636V16H75.6336V10.137ZM88.1188 15.428C88.1188 15.9927 87.9905 16.4803 87.7338 16.891C87.4845 17.3017 87.1288 17.617 86.6668 17.837C86.2048 18.0643 85.6621 18.178 85.0388 18.178C84.5621 18.178 84.1148 18.1083 83.6968 17.969C83.2861 17.8297 82.9048 17.6427 82.5528 17.408L83.1248 16.429C83.3961 16.627 83.6821 16.781 83.9828 16.891C84.2835 17.001 84.6098 17.056 84.9618 17.056C85.3138 17.056 85.6181 16.99 85.8748 16.858C86.1388 16.726 86.3405 16.5427 86.4798 16.308C86.6191 16.0733 86.6888 15.7947 86.6888 15.472V10.137H88.1188V15.428ZM84.7748 10.082C85.2808 10.0747 85.7135 10.1847 86.0728 10.412C86.4321 10.6393 86.7071 10.962 86.8978 11.38C87.0885 11.798 87.1801 12.3003 87.1728 12.887C87.1801 13.4737 87.0885 13.9797 86.8978 14.405C86.7145 14.823 86.4468 15.1457 86.0948 15.373C85.7428 15.6003 85.3175 15.714 84.8188 15.714C84.2981 15.714 83.8398 15.5967 83.4438 15.362C83.0551 15.12 82.7508 14.7863 82.5308 14.361C82.3108 13.9283 82.2008 13.4333 82.2008 12.876C82.2008 12.3187 82.3071 11.8347 82.5198 11.424C82.7398 11.006 83.0441 10.6797 83.4328 10.445C83.8215 10.203 84.2688 10.082 84.7748 10.082ZM85.1268 11.171C84.8261 11.171 84.5548 11.2443 84.3128 11.391C84.0781 11.5377 83.8948 11.743 83.7628 12.007C83.6308 12.271 83.5611 12.5717 83.5538 12.909C83.5611 13.2463 83.6308 13.547 83.7628 13.811C83.8948 14.075 84.0781 14.2803 84.3128 14.427C84.5475 14.5737 84.8188 14.647 85.1268 14.647C85.4348 14.647 85.7061 14.5737 85.9408 14.427C86.1755 14.2803 86.3588 14.075 86.4908 13.811C86.6228 13.547 86.6888 13.2463 86.6888 12.909C86.6888 12.5643 86.6228 12.2637 86.4908 12.007C86.3588 11.743 86.1755 11.5377 85.9408 11.391C85.7061 11.2443 85.4348 11.171 85.1268 11.171ZM93.0644 11.666C92.7784 11.4973 92.4814 11.369 92.1734 11.281C91.8654 11.1857 91.5867 11.138 91.3374 11.138C91.1027 11.138 90.9121 11.182 90.7654 11.27C90.6187 11.3507 90.5454 11.49 90.5454 11.688C90.5454 11.8567 90.6187 11.9923 90.7654 12.095C90.9194 12.1977 91.1137 12.2857 91.3484 12.359C91.5831 12.425 91.8324 12.4983 92.0964 12.579C92.3604 12.6597 92.6097 12.766 92.8444 12.898C93.0864 13.03 93.2807 13.206 93.4274 13.426C93.5814 13.646 93.6584 13.9357 93.6584 14.295C93.6584 14.691 93.5521 15.021 93.3394 15.285C93.1267 15.5417 92.8444 15.736 92.4924 15.868C92.1404 15.9927 91.7554 16.055 91.3374 16.055C90.8974 16.055 90.4574 15.9853 90.0174 15.846C89.5847 15.7067 89.2144 15.5013 88.9064 15.23L89.4014 14.273C89.6727 14.5077 89.9917 14.691 90.3584 14.823C90.7324 14.9477 91.0771 15.01 91.3924 15.01C91.5611 15.01 91.7114 14.988 91.8434 14.944C91.9754 14.9 92.0781 14.8377 92.1514 14.757C92.2247 14.669 92.2614 14.5553 92.2614 14.416C92.2614 14.2253 92.1881 14.0787 92.0414 13.976C91.8947 13.866 91.7041 13.7743 91.4694 13.701C91.2421 13.6203 90.9964 13.5433 90.7324 13.47C90.4684 13.3893 90.2191 13.2867 89.9844 13.162C89.7571 13.03 89.5701 12.8577 89.4234 12.645C89.2767 12.4323 89.2034 12.15 89.2034 11.798C89.2034 11.402 89.3061 11.0757 89.5114 10.819C89.7167 10.5623 89.9881 10.3753 90.3254 10.258C90.6627 10.1333 91.0294 10.071 91.4254 10.071C91.8067 10.071 92.1881 10.126 92.5694 10.236C92.9507 10.3387 93.2881 10.4853 93.5814 10.676L93.0644 11.666ZM97.4639 8.3H102.777V9.532H98.9379V11.677H102.425V12.898H98.9379V16H97.4639V8.3ZM106.176 10.082C106.785 10.082 107.32 10.2067 107.782 10.456C108.251 10.7053 108.614 11.0537 108.871 11.501C109.135 11.9483 109.267 12.469 109.267 13.063C109.267 13.657 109.135 14.1777 108.871 14.625C108.614 15.0723 108.251 15.4243 107.782 15.681C107.32 15.9303 106.785 16.055 106.176 16.055C105.56 16.055 105.017 15.9303 104.548 15.681C104.079 15.4243 103.712 15.0723 103.448 14.625C103.191 14.1777 103.063 13.657 103.063 13.063C103.063 12.469 103.191 11.9483 103.448 11.501C103.712 11.0537 104.079 10.7053 104.548 10.456C105.017 10.2067 105.56 10.082 106.176 10.082ZM106.176 11.237C105.846 11.237 105.553 11.3177 105.296 11.479C105.047 11.633 104.852 11.8493 104.713 12.128C104.574 12.3993 104.504 12.7147 104.504 13.074C104.504 13.4407 104.574 13.7633 104.713 14.042C104.852 14.3207 105.047 14.537 105.296 14.691C105.553 14.845 105.846 14.922 106.176 14.922C106.499 14.922 106.785 14.845 107.034 14.691C107.283 14.537 107.478 14.3207 107.617 14.042C107.756 13.7633 107.826 13.4407 107.826 13.074C107.826 12.7147 107.756 12.3993 107.617 12.128C107.478 11.8493 107.283 11.633 107.034 11.479C106.785 11.3177 106.499 11.237 106.176 11.237ZM112.863 10.082C113.472 10.082 114.007 10.2067 114.469 10.456C114.939 10.7053 115.302 11.0537 115.558 11.501C115.822 11.9483 115.954 12.469 115.954 13.063C115.954 13.657 115.822 14.1777 115.558 14.625C115.302 15.0723 114.939 15.4243 114.469 15.681C114.007 15.9303 113.472 16.055 112.863 16.055C112.247 16.055 111.705 15.9303 111.235 15.681C110.766 15.4243 110.399 15.0723 110.135 14.625C109.879 14.1777 109.75 13.657 109.75 13.063C109.75 12.469 109.879 11.9483 110.135 11.501C110.399 11.0537 110.766 10.7053 111.235 10.456C111.705 10.2067 112.247 10.082 112.863 10.082ZM112.863 11.237C112.533 11.237 112.24 11.3177 111.983 11.479C111.734 11.633 111.54 11.8493 111.4 12.128C111.261 12.3993 111.191 12.7147 111.191 13.074C111.191 13.4407 111.261 13.7633 111.4 14.042C111.54 14.3207 111.734 14.537 111.983 14.691C112.24 14.845 112.533 14.922 112.863 14.922C113.186 14.922 113.472 14.845 113.721 14.691C113.971 14.537 114.165 14.3207 114.304 14.042C114.444 13.7633 114.513 13.4407 114.513 13.074C114.513 12.7147 114.444 12.3993 114.304 12.128C114.165 11.8493 113.971 11.633 113.721 11.479C113.472 11.3177 113.186 11.237 112.863 11.237ZM118.637 14.086C118.637 14.3793 118.692 14.581 118.802 14.691C118.912 14.801 119.063 14.856 119.253 14.856C119.371 14.856 119.499 14.8377 119.638 14.801C119.778 14.757 119.928 14.691 120.089 14.603L120.419 15.637C120.199 15.769 119.961 15.8753 119.704 15.956C119.455 16.0293 119.202 16.066 118.945 16.066C118.63 16.066 118.34 16.0073 118.076 15.89C117.812 15.7653 117.603 15.5747 117.449 15.318C117.295 15.054 117.218 14.724 117.218 14.328V8.751H118.637V14.086ZM116.393 10.357H120.32V11.358H116.393V10.357ZM124.787 10.082C125.344 10.082 125.832 10.2067 126.25 10.456C126.668 10.7053 126.991 11.0573 127.218 11.512C127.453 11.9593 127.57 12.4837 127.57 13.085C127.57 13.6717 127.456 14.1887 127.229 14.636C127.002 15.076 126.679 15.4243 126.261 15.681C125.85 15.9303 125.366 16.055 124.809 16.055C124.288 16.055 123.841 15.9377 123.467 15.703C123.093 15.461 122.807 15.1163 122.609 14.669C122.411 14.2217 122.312 13.6937 122.312 13.085C122.312 12.4543 122.407 11.9153 122.598 11.468C122.796 11.0207 123.082 10.6797 123.456 10.445C123.83 10.203 124.274 10.082 124.787 10.082ZM124.468 11.215C124.145 11.215 123.856 11.2957 123.599 11.457C123.35 11.611 123.155 11.8273 123.016 12.106C122.877 12.3773 122.807 12.6927 122.807 13.052C122.807 13.4113 122.877 13.7303 123.016 14.009C123.155 14.2877 123.35 14.504 123.599 14.658C123.856 14.812 124.145 14.889 124.468 14.889C124.798 14.889 125.084 14.812 125.326 14.658C125.575 14.4967 125.77 14.2803 125.909 14.009C126.048 13.7303 126.118 13.4113 126.118 13.052C126.118 12.6927 126.048 12.3773 125.909 12.106C125.77 11.8273 125.575 11.611 125.326 11.457C125.084 11.2957 124.798 11.215 124.468 11.215ZM121.377 7.838H122.807V16H121.377V7.838ZM130.569 13.415C130.195 13.415 129.916 13.4737 129.733 13.591C129.55 13.7083 129.458 13.9027 129.458 14.174C129.458 14.4233 129.55 14.625 129.733 14.779C129.924 14.933 130.18 15.01 130.503 15.01C130.789 15.01 131.046 14.9623 131.273 14.867C131.508 14.7643 131.691 14.6287 131.823 14.46C131.962 14.284 132.043 14.0897 132.065 13.877L132.307 14.9C132.131 15.2813 131.86 15.571 131.493 15.769C131.126 15.967 130.683 16.066 130.162 16.066C129.744 16.066 129.381 15.9853 129.073 15.824C128.765 15.6627 128.527 15.4463 128.358 15.175C128.189 14.8963 128.105 14.5847 128.105 14.24C128.105 13.6973 128.299 13.272 128.688 12.964C129.077 12.6487 129.627 12.4873 130.338 12.48H132.219V13.415H130.569ZM132.054 12.304C132.054 11.952 131.94 11.677 131.713 11.479C131.493 11.2737 131.163 11.171 130.723 11.171C130.452 11.171 130.166 11.2223 129.865 11.325C129.572 11.4203 129.275 11.5597 128.974 11.743L128.457 10.819C128.736 10.6503 129.003 10.5147 129.26 10.412C129.517 10.302 129.784 10.2213 130.063 10.17C130.349 10.1113 130.675 10.082 131.042 10.082C131.812 10.082 132.406 10.2653 132.824 10.632C133.242 10.9987 133.455 11.5047 133.462 12.15L133.473 16H132.065L132.054 12.304ZM134.912 7.838H136.342V16H134.912V7.838ZM138.012 7.838H139.442V16H138.012V7.838ZM67.377 21.3H68.884L72.217 29H70.644L68.081 22.785L65.529 29H63.989L67.377 21.3ZM65.76 26.118H70.347V27.317H65.76V26.118ZM76.6575 24.919C76.4741 24.7137 76.2505 24.556 75.9865 24.446C75.7298 24.3287 75.4401 24.27 75.1175 24.27C74.8021 24.27 74.5235 24.347 74.2815 24.501C74.0395 24.6477 73.8488 24.8567 73.7095 25.128C73.5775 25.3993 73.5115 25.7147 73.5115 26.074C73.5115 26.4333 73.5775 26.7487 73.7095 27.02C73.8488 27.2913 74.0395 27.504 74.2815 27.658C74.5235 27.812 74.8021 27.889 75.1175 27.889C75.4548 27.889 75.7591 27.8303 76.0305 27.713C76.3018 27.5957 76.5255 27.4197 76.7015 27.185L77.5925 27.911C77.3358 28.2703 76.9911 28.5527 76.5585 28.758C76.1258 28.956 75.6235 29.055 75.0515 29.055C74.4648 29.055 73.9478 28.9303 73.5005 28.681C73.0531 28.4243 72.7011 28.076 72.4445 27.636C72.1951 27.1887 72.0705 26.668 72.0705 26.074C72.0705 25.48 72.1951 24.9593 72.4445 24.512C72.7011 24.0647 73.0531 23.7163 73.5005 23.467C73.9478 23.2103 74.4648 23.082 75.0515 23.082C75.6015 23.082 76.0855 23.1737 76.5035 23.357C76.9215 23.533 77.2661 23.7823 77.5375 24.105L76.6575 24.919ZM80.3636 26.415C79.9896 26.415 79.711 26.4737 79.5276 26.591C79.3443 26.7083 79.2526 26.9027 79.2526 27.174C79.2526 27.4233 79.3443 27.625 79.5276 27.779C79.7183 27.933 79.975 28.01 80.2976 28.01C80.5836 28.01 80.8403 27.9623 81.0676 27.867C81.3023 27.7643 81.4856 27.6287 81.6176 27.46C81.757 27.284 81.8376 27.0897 81.8596 26.877L82.1016 27.9C81.9256 28.2813 81.6543 28.571 81.2876 28.769C80.921 28.967 80.4773 29.066 79.9566 29.066C79.5386 29.066 79.1756 28.9853 78.8676 28.824C78.5596 28.6627 78.3213 28.4463 78.1526 28.175C77.984 27.8963 77.8996 27.5847 77.8996 27.24C77.8996 26.6973 78.094 26.272 78.4826 25.964C78.8713 25.6487 79.4213 25.4873 80.1326 25.48H82.0136V26.415H80.3636ZM81.8486 25.304C81.8486 24.952 81.735 24.677 81.5076 24.479C81.2876 24.2737 80.9576 24.171 80.5176 24.171C80.2463 24.171 79.9603 24.2223 79.6596 24.325C79.3663 24.4203 79.0693 24.5597 78.7686 24.743L78.2516 23.819C78.5303 23.6503 78.798 23.5147 79.0546 23.412C79.3113 23.302 79.579 23.2213 79.8576 23.17C80.1436 23.1113 80.47 23.082 80.8366 23.082C81.6066 23.082 82.2006 23.2653 82.6186 23.632C83.0366 23.9987 83.2493 24.5047 83.2566 25.15L83.2676 29H81.8596L81.8486 25.304ZM86.8849 23.071C87.4202 23.071 87.8749 23.192 88.2489 23.434C88.6229 23.676 88.9089 24.0207 89.1069 24.468C89.3049 24.908 89.4002 25.4397 89.3929 26.063C89.4002 26.679 89.3049 27.2143 89.1069 27.669C88.9162 28.1163 88.6339 28.461 88.2599 28.703C87.8859 28.9377 87.4386 29.055 86.9179 29.055C86.3606 29.055 85.8692 28.9303 85.4439 28.681C85.0259 28.4243 84.6996 28.0687 84.4649 27.614C84.2302 27.1593 84.1129 26.6387 84.1129 26.052C84.1129 25.458 84.2302 24.9373 84.4649 24.49C84.6996 24.0427 85.0222 23.6943 85.4329 23.445C85.8509 23.1957 86.3349 23.071 86.8849 23.071ZM87.2259 24.226C86.9032 24.226 86.6136 24.3067 86.3569 24.468C86.1076 24.6293 85.9132 24.8493 85.7739 25.128C85.6346 25.4067 85.5612 25.7257 85.5539 26.085C85.5612 26.4443 85.6346 26.7633 85.7739 27.042C85.9132 27.3207 86.1076 27.5407 86.3569 27.702C86.6136 27.856 86.9032 27.933 87.2259 27.933C87.5559 27.933 87.8456 27.856 88.0949 27.702C88.3516 27.5407 88.5496 27.3207 88.6889 27.042C88.8282 26.7633 88.8979 26.4443 88.8979 26.085C88.8979 25.7183 88.8282 25.3993 88.6889 25.128C88.5496 24.8493 88.3516 24.6293 88.0949 24.468C87.8456 24.3067 87.5559 24.226 87.2259 24.226ZM88.8979 20.838H90.3279V29H88.8979V20.838ZM95.9117 25.623C95.897 25.315 95.8274 25.0547 95.7027 24.842C95.578 24.622 95.402 24.4533 95.1747 24.336C94.9547 24.2113 94.7017 24.149 94.4157 24.149C94.0857 24.149 93.7997 24.226 93.5577 24.38C93.3157 24.534 93.125 24.7503 92.9857 25.029C92.8537 25.3077 92.7877 25.6303 92.7877 25.997C92.7877 26.4003 92.861 26.7487 93.0077 27.042C93.1617 27.3353 93.3707 27.5627 93.6347 27.724C93.8987 27.878 94.203 27.955 94.5477 27.955C95.171 27.955 95.7027 27.7313 96.1427 27.284L96.9017 28.043C96.6084 28.3657 96.2527 28.615 95.8347 28.791C95.4167 28.967 94.951 29.055 94.4377 29.055C93.8217 29.055 93.2864 28.9303 92.8317 28.681C92.3844 28.4243 92.0324 28.076 91.7757 27.636C91.5264 27.1887 91.4017 26.668 91.4017 26.074C91.4017 25.48 91.5264 24.9593 91.7757 24.512C92.0324 24.0647 92.3844 23.7163 92.8317 23.467C93.2864 23.2177 93.807 23.0893 94.3937 23.082C95.0904 23.082 95.6514 23.225 96.0767 23.511C96.5094 23.797 96.8174 24.2003 97.0007 24.721C97.184 25.2343 97.25 25.8467 97.1987 26.558H92.5787V25.623H95.9117ZM102.432 25.722C102.432 25.2893 102.319 24.952 102.091 24.71C101.871 24.468 101.56 24.347 101.156 24.347C100.694 24.3543 100.328 24.5267 100.056 24.864C99.7925 25.194 99.6605 25.6083 99.6605 26.107H99.2755C99.2755 25.3957 99.3745 24.82 99.5725 24.38C99.7705 23.9327 100.053 23.6063 100.419 23.401C100.793 23.1883 101.23 23.082 101.728 23.082C102.176 23.082 102.557 23.1737 102.872 23.357C103.195 23.5403 103.441 23.8007 103.609 24.138C103.785 24.468 103.873 24.8677 103.873 25.337V29H102.432V25.722ZM106.645 25.722C106.645 25.2893 106.532 24.952 106.304 24.71C106.077 24.468 105.762 24.347 105.358 24.347C104.896 24.3543 104.533 24.5267 104.269 24.864C104.005 25.194 103.873 25.6083 103.873 26.107H103.488C103.488 25.3957 103.587 24.82 103.785 24.38C103.983 23.9327 104.266 23.6063 104.632 23.401C104.999 23.1883 105.435 23.082 105.941 23.082C106.381 23.082 106.759 23.1737 107.074 23.357C107.397 23.5403 107.646 23.8007 107.822 24.138C107.998 24.468 108.086 24.8677 108.086 25.337V29H106.645V25.722ZM98.2305 23.137H99.6605V29H98.2305V23.137ZM111.83 29.77C111.64 30.2393 111.376 30.595 111.038 30.837C110.701 31.079 110.298 31.2 109.828 31.2C109.542 31.2 109.282 31.156 109.047 31.068C108.82 30.98 108.593 30.8517 108.365 30.683L108.981 29.649C109.245 29.847 109.498 29.946 109.74 29.946C109.931 29.946 110.096 29.8947 110.235 29.792C110.382 29.6893 110.503 29.5317 110.598 29.319L110.774 28.912L108.343 23.137H109.828L111.5 27.493L113.029 23.137H114.47L111.83 29.77Z" fill="#3D0D75"/>
<g clip-path="url(#clip0_27_279)">
<path d="M66.0515 37.218C64.9183 37.218 64 38.1875 64 39.3838C64 40.5802 66.0515 43.7825 66.0515 43.7825C66.0515 43.7825 68.103 40.5802 68.103 39.3838C68.103 38.1875 67.1843 37.218 66.0515 37.218ZM66.0515 40.4752C65.4805 40.4752 65.0177 39.9867 65.0177 39.3838C65.0177 38.7809 65.4805 38.2924 66.0515 38.2924C66.6225 38.2924 67.0853 38.7809 67.0853 39.3838C67.0853 39.9867 66.6225 40.4752 66.0515 40.4752Z" fill="#3D0D75"/>
</g>
<path d="M72.8746 38.1C73.2152 38.1 73.5069 38.149 73.7496 38.247C73.9969 38.345 74.1859 38.485 74.3166 38.667C74.4519 38.849 74.5196 39.0683 74.5196 39.325C74.5196 39.6003 74.4426 39.836 74.2886 40.032C74.1346 40.228 73.9246 40.3563 73.6586 40.417C73.9852 40.473 74.2419 40.6107 74.4286 40.83C74.6152 41.0493 74.7086 41.3247 74.7086 41.656C74.7086 41.936 74.6362 42.1763 74.4916 42.377C74.3469 42.5777 74.1416 42.7317 73.8756 42.839C73.6096 42.9463 73.2922 43 72.9236 43H70.7466V38.1H72.8746ZM72.8326 40.137C73.0939 40.137 73.2992 40.0787 73.4486 39.962C73.5979 39.8407 73.6726 39.6727 73.6726 39.458C73.6726 39.248 73.5979 39.087 73.4486 38.975C73.2992 38.8583 73.0939 38.8023 72.8326 38.807H71.5726V40.137H72.8326ZM72.8326 42.293C73.1546 42.2977 73.4066 42.237 73.5886 42.111C73.7706 41.9803 73.8616 41.796 73.8616 41.558C73.8616 41.334 73.7706 41.159 73.5886 41.033C73.4066 40.9023 73.1546 40.8393 72.8326 40.844H71.5726V42.293H72.8326ZM76.6479 41.341C76.3866 41.341 76.1929 41.3807 76.0669 41.46C75.9409 41.5393 75.8779 41.67 75.8779 41.852C75.8779 42.0247 75.9409 42.1623 76.0669 42.265C76.1976 42.3677 76.3749 42.419 76.5989 42.419C76.7996 42.419 76.9793 42.384 77.1379 42.314C77.2966 42.244 77.4226 42.1507 77.5159 42.034C77.6093 41.9127 77.6583 41.7773 77.6629 41.628L77.8169 42.307C77.7003 42.5497 77.5229 42.7317 77.2849 42.853C77.0469 42.9743 76.7623 43.035 76.4309 43.035C76.1649 43.035 75.9339 42.9837 75.7379 42.881C75.5419 42.7783 75.3903 42.6407 75.2829 42.468C75.1756 42.2907 75.1219 42.0947 75.1219 41.88C75.1219 41.544 75.2433 41.2757 75.4859 41.075C75.7333 40.8743 76.0809 40.7717 76.5289 40.767H77.7609V41.341H76.6479ZM77.6559 40.641C77.6559 40.3983 77.5813 40.2093 77.4319 40.074C77.2826 39.9387 77.0609 39.871 76.7669 39.871C76.5896 39.871 76.4076 39.9037 76.2209 39.969C76.0389 40.0343 75.8546 40.13 75.6679 40.256L75.3389 39.738C75.5116 39.6307 75.6749 39.542 75.8289 39.472C75.9829 39.402 76.1463 39.3483 76.3189 39.311C76.4963 39.2737 76.7039 39.255 76.9419 39.255C77.4226 39.255 77.7913 39.3717 78.0479 39.605C78.3093 39.8337 78.4423 40.151 78.4469 40.557L78.4539 43H77.6629L77.6559 40.641ZM82.1215 40.9C82.1215 40.6107 82.0422 40.3843 81.8835 40.221C81.7248 40.053 81.5055 39.969 81.2255 39.969C80.8942 39.9737 80.6328 40.0903 80.4415 40.319C80.2548 40.5477 80.1615 40.8323 80.1615 41.173H79.9375C79.9375 40.711 80.0028 40.34 80.1335 40.06C80.2642 39.78 80.4485 39.577 80.6865 39.451C80.9292 39.3203 81.2138 39.255 81.5405 39.255C81.8298 39.255 82.0772 39.3133 82.2825 39.43C82.4925 39.5467 82.6512 39.7123 82.7585 39.927C82.8705 40.137 82.9265 40.3913 82.9265 40.69V43H82.1215V40.9ZM79.3565 37.806H80.1615V43H79.3565V37.806ZM85.8871 39.983C85.6211 39.969 85.3901 40.0157 85.1941 40.123C85.0028 40.2257 84.8535 40.3703 84.7461 40.557C84.6435 40.7437 84.5921 40.9583 84.5921 41.201L84.3681 41.173C84.3681 40.7577 84.4288 40.4077 84.5501 40.123C84.6715 39.8383 84.8465 39.6237 85.0751 39.479C85.3038 39.3297 85.5745 39.255 85.8871 39.255V39.983ZM83.7941 39.283H84.5991V43H83.7941V39.283ZM87.4066 41.341C87.1453 41.341 86.9516 41.3807 86.8256 41.46C86.6996 41.5393 86.6366 41.67 86.6366 41.852C86.6366 42.0247 86.6996 42.1623 86.8256 42.265C86.9563 42.3677 87.1336 42.419 87.3576 42.419C87.5583 42.419 87.7379 42.384 87.8966 42.314C88.0553 42.244 88.1813 42.1507 88.2746 42.034C88.3679 41.9127 88.4169 41.7773 88.4216 41.628L88.5756 42.307C88.4589 42.5497 88.2816 42.7317 88.0436 42.853C87.8056 42.9743 87.5209 43.035 87.1896 43.035C86.9236 43.035 86.6926 42.9837 86.4966 42.881C86.3006 42.7783 86.1489 42.6407 86.0416 42.468C85.9343 42.2907 85.8806 42.0947 85.8806 41.88C85.8806 41.544 86.0019 41.2757 86.2446 41.075C86.4919 40.8743 86.8396 40.7717 87.2876 40.767H88.5196V41.341H87.4066ZM88.4146 40.641C88.4146 40.3983 88.3399 40.2093 88.1906 40.074C88.0413 39.9387 87.8196 39.871 87.5256 39.871C87.3483 39.871 87.1663 39.9037 86.9796 39.969C86.7976 40.0343 86.6133 40.13 86.4266 40.256L86.0976 39.738C86.2703 39.6307 86.4336 39.542 86.5876 39.472C86.7416 39.402 86.9049 39.3483 87.0776 39.311C87.2549 39.2737 87.4626 39.255 87.7006 39.255C88.1813 39.255 88.5499 39.3717 88.8066 39.605C89.068 39.8337 89.201 40.151 89.2056 40.557L89.2126 43H88.4216L88.4146 40.641ZM90.0802 39.283H90.8782V43H90.0802V39.283ZM90.4792 37.75C90.6145 37.75 90.7265 37.7943 90.8152 37.883C90.9038 37.9717 90.9482 38.0837 90.9482 38.219C90.9482 38.3497 90.9038 38.4617 90.8152 38.555C90.7265 38.6437 90.6145 38.688 90.4792 38.688C90.3485 38.688 90.2365 38.6437 90.1432 38.555C90.0545 38.4617 90.0102 38.3497 90.0102 38.219C90.0102 38.0837 90.0545 37.9717 90.1432 37.883C90.2365 37.7943 90.3485 37.75 90.4792 37.75ZM94.6174 40.9C94.6174 40.6107 94.5381 40.3843 94.3794 40.221C94.2208 40.053 94.0014 39.969 93.7214 39.969C93.3901 39.9737 93.1288 40.0903 92.9374 40.319C92.7508 40.5477 92.6574 40.8323 92.6574 41.173H92.4334C92.4334 40.711 92.4988 40.34 92.6294 40.06C92.7601 39.78 92.9444 39.577 93.1824 39.451C93.4251 39.3203 93.7098 39.255 94.0364 39.255C94.3258 39.255 94.5731 39.3133 94.7784 39.43C94.9884 39.5467 95.1471 39.7123 95.2544 39.927C95.3664 40.137 95.4224 40.3913 95.4224 40.69V43H94.6174V40.9ZM91.8594 39.283H92.6644V43H91.8594V39.283ZM101.566 39.374C101.388 39.178 101.178 39.024 100.936 38.912C100.693 38.8 100.448 38.744 100.201 38.744C99.9581 38.744 99.7294 38.7907 99.5148 38.884C99.3048 38.9727 99.1181 39.0987 98.9548 39.262C98.7961 39.4253 98.6724 39.6167 98.5838 39.836C98.4951 40.0507 98.4508 40.284 98.4508 40.536C98.4508 40.7833 98.4951 41.0167 98.5838 41.236C98.6724 41.4507 98.7961 41.6397 98.9548 41.803C99.1181 41.9663 99.3048 42.0947 99.5148 42.188C99.7294 42.2813 99.9581 42.328 100.201 42.328C100.448 42.328 100.691 42.2767 100.929 42.174C101.167 42.0667 101.379 41.922 101.566 41.74L102.056 42.251C101.892 42.4143 101.706 42.5567 101.496 42.678C101.29 42.7993 101.073 42.8927 100.845 42.958C100.621 43.0233 100.392 43.056 100.159 43.056C99.7994 43.056 99.4658 42.993 99.1578 42.867C98.8498 42.7363 98.5791 42.5567 98.3458 42.328C98.1171 42.0993 97.9374 41.8333 97.8068 41.53C97.6761 41.222 97.6108 40.893 97.6108 40.543C97.6108 40.193 97.6761 39.8687 97.8068 39.57C97.9374 39.2667 98.1194 39.0007 98.3528 38.772C98.5908 38.5433 98.8638 38.366 99.1718 38.24C99.4844 38.114 99.8228 38.051 100.187 38.051C100.42 38.051 100.649 38.0813 100.873 38.142C101.097 38.2027 101.309 38.289 101.51 38.401C101.71 38.513 101.89 38.6483 102.049 38.807L101.566 39.374ZM102.674 37.806H103.479V43H102.674V37.806ZM105.179 41.383C105.179 41.6723 105.256 41.901 105.41 42.069C105.564 42.2323 105.776 42.314 106.047 42.314C106.369 42.3047 106.619 42.1857 106.796 41.957C106.978 41.7283 107.069 41.446 107.069 41.11H107.286C107.286 41.5673 107.223 41.936 107.097 42.216C106.971 42.496 106.791 42.7013 106.558 42.832C106.329 42.958 106.056 43.0233 105.739 43.028C105.454 43.028 105.209 42.9697 105.004 42.853C104.803 42.7363 104.647 42.5707 104.535 42.356C104.428 42.1413 104.374 41.887 104.374 41.593V39.283H105.179V41.383ZM107.069 39.283H107.874V43H107.069V39.283ZM110.998 39.255C111.353 39.255 111.663 39.3343 111.929 39.493C112.195 39.6517 112.403 39.8733 112.552 40.158C112.702 40.4427 112.776 40.774 112.776 41.152C112.776 41.5207 112.702 41.8473 112.552 42.132C112.408 42.412 112.202 42.6313 111.936 42.79C111.675 42.9487 111.367 43.028 111.012 43.028C110.672 43.028 110.38 42.9533 110.137 42.804C109.899 42.6547 109.717 42.44 109.591 42.16C109.465 41.8753 109.402 41.5393 109.402 41.152C109.402 40.7507 109.465 40.41 109.591 40.13C109.717 39.8453 109.899 39.6283 110.137 39.479C110.38 39.3297 110.667 39.255 110.998 39.255ZM110.83 39.892C110.611 39.892 110.415 39.9457 110.242 40.053C110.07 40.1603 109.934 40.3073 109.836 40.494C109.743 40.676 109.696 40.8883 109.696 41.131C109.696 41.3737 109.743 41.5907 109.836 41.782C109.934 41.9687 110.07 42.1157 110.242 42.223C110.415 42.3257 110.611 42.377 110.83 42.377C111.054 42.377 111.25 42.3233 111.418 42.216C111.591 42.1087 111.724 41.9617 111.817 41.775C111.915 41.5883 111.964 41.3737 111.964 41.131C111.964 40.893 111.915 40.6807 111.817 40.494C111.724 40.3073 111.591 40.1603 111.418 40.053C111.25 39.9457 111.054 39.892 110.83 39.892ZM108.891 37.806H109.696V43H108.891V37.806ZM114.913 40.606H116.635V41.138H114.913V40.606ZM119.174 38.1H120.133L121.827 41.425L123.507 38.1H124.466V43H123.703L123.696 39.255L122.086 42.489H121.561L119.937 39.255V43H119.174V38.1ZM126.184 41.383C126.184 41.6723 126.261 41.901 126.415 42.069C126.569 42.2323 126.781 42.314 127.052 42.314C127.374 42.3047 127.623 42.1857 127.801 41.957C127.983 41.7283 128.074 41.446 128.074 41.11H128.291C128.291 41.5673 128.228 41.936 128.102 42.216C127.976 42.496 127.796 42.7013 127.563 42.832C127.334 42.958 127.061 43.0233 126.744 43.028C126.459 43.028 126.214 42.9697 126.009 42.853C125.808 42.7363 125.652 42.5707 125.54 42.356C125.432 42.1413 125.379 41.887 125.379 41.593V39.283H126.184V41.383ZM128.074 39.283H128.879V43H128.074V39.283ZM132.661 40.9C132.661 40.6107 132.582 40.3843 132.423 40.221C132.264 40.053 132.045 39.969 131.765 39.969C131.434 39.9737 131.172 40.0903 130.981 40.319C130.794 40.5477 130.701 40.8323 130.701 41.173H130.477C130.477 40.711 130.542 40.34 130.673 40.06C130.804 39.78 130.988 39.577 131.226 39.451C131.469 39.3203 131.753 39.255 132.08 39.255C132.369 39.255 132.617 39.3133 132.822 39.43C133.032 39.5467 133.191 39.7123 133.298 39.927C133.41 40.137 133.466 40.3913 133.466 40.69V43H132.661V40.9ZM129.896 37.806H130.701V43H129.896V37.806ZM135.552 41.341C135.29 41.341 135.097 41.3807 134.971 41.46C134.845 41.5393 134.782 41.67 134.782 41.852C134.782 42.0247 134.845 42.1623 134.971 42.265C135.101 42.3677 135.279 42.419 135.503 42.419C135.703 42.419 135.883 42.384 136.042 42.314C136.2 42.244 136.326 42.1507 136.42 42.034C136.513 41.9127 136.562 41.7773 136.567 41.628L136.721 42.307C136.604 42.5497 136.427 42.7317 136.189 42.853C135.951 42.9743 135.666 43.035 135.335 43.035C135.069 43.035 134.838 42.9837 134.642 42.881C134.446 42.7783 134.294 42.6407 134.187 42.468C134.079 42.2907 134.026 42.0947 134.026 41.88C134.026 41.544 134.147 41.2757 134.39 41.075C134.637 40.8743 134.985 40.7717 135.433 40.767H136.665V41.341H135.552ZM136.56 40.641C136.56 40.3983 136.485 40.2093 136.336 40.074C136.186 39.9387 135.965 39.871 135.671 39.871C135.493 39.871 135.311 39.9037 135.125 39.969C134.943 40.0343 134.758 40.13 134.572 40.256L134.243 39.738C134.415 39.6307 134.579 39.542 134.733 39.472C134.887 39.402 135.05 39.3483 135.223 39.311C135.4 39.2737 135.608 39.255 135.846 39.255C136.326 39.255 136.695 39.3717 136.952 39.605C137.213 39.8337 137.346 40.151 137.351 40.557L137.358 43H136.567L136.56 40.641ZM140.318 39.983C140.052 39.969 139.821 40.0157 139.625 40.123C139.434 40.2257 139.284 40.3703 139.177 40.557C139.074 40.7437 139.023 40.9583 139.023 41.201L138.799 41.173C138.799 40.7577 138.86 40.4077 138.981 40.123C139.102 39.8383 139.277 39.6237 139.506 39.479C139.735 39.3297 140.005 39.255 140.318 39.255V39.983ZM138.225 39.283H139.03V43H138.225V39.283ZM142.863 39.983C142.597 39.969 142.366 40.0157 142.17 40.123C141.979 40.2257 141.829 40.3703 141.722 40.557C141.619 40.7437 141.568 40.9583 141.568 41.201L141.344 41.173C141.344 40.7577 141.405 40.4077 141.526 40.123C141.647 39.8383 141.822 39.6237 142.051 39.479C142.28 39.3297 142.55 39.255 142.863 39.255V39.983ZM140.77 39.283H141.575V43H140.77V39.283ZM144.383 41.341C144.121 41.341 143.928 41.3807 143.802 41.46C143.676 41.5393 143.613 41.67 143.613 41.852C143.613 42.0247 143.676 42.1623 143.802 42.265C143.932 42.3677 144.11 42.419 144.334 42.419C144.534 42.419 144.714 42.384 144.873 42.314C145.031 42.244 145.157 42.1507 145.251 42.034C145.344 41.9127 145.393 41.7773 145.398 41.628L145.552 42.307C145.435 42.5497 145.258 42.7317 145.02 42.853C144.782 42.9743 144.497 43.035 144.166 43.035C143.9 43.035 143.669 42.9837 143.473 42.881C143.277 42.7783 143.125 42.6407 143.018 42.468C142.91 42.2907 142.857 42.0947 142.857 41.88C142.857 41.544 142.978 41.2757 143.221 41.075C143.468 40.8743 143.816 40.7717 144.264 40.767H145.496V41.341H144.383ZM145.391 40.641C145.391 40.3983 145.316 40.2093 145.167 40.074C145.017 39.9387 144.796 39.871 144.502 39.871C144.324 39.871 144.142 39.9037 143.956 39.969C143.774 40.0343 143.589 40.13 143.403 40.256L143.074 39.738C143.246 39.6307 143.41 39.542 143.564 39.472C143.718 39.402 143.881 39.3483 144.054 39.311C144.231 39.2737 144.439 39.255 144.677 39.255C145.157 39.255 145.526 39.3717 145.783 39.605C146.044 39.8337 146.177 40.151 146.182 40.557L146.189 43H145.398L145.391 40.641ZM148.477 39.248C148.822 39.248 149.114 39.325 149.352 39.479C149.595 39.6283 149.779 39.8453 149.905 40.13C150.036 40.41 150.099 40.746 150.094 41.138C150.099 41.53 150.038 41.8683 149.912 42.153C149.786 42.4377 149.602 42.657 149.359 42.811C149.121 42.9603 148.832 43.035 148.491 43.035C148.136 43.035 147.824 42.9557 147.553 42.797C147.287 42.6337 147.079 42.4097 146.93 42.125C146.781 41.8357 146.706 41.5043 146.706 41.131C146.706 40.7577 146.781 40.431 146.93 40.151C147.079 39.8663 147.287 39.6447 147.553 39.486C147.819 39.3273 148.127 39.248 148.477 39.248ZM148.659 39.899C148.435 39.899 148.237 39.9527 148.064 40.06C147.891 40.1673 147.756 40.3167 147.658 40.508C147.565 40.6947 147.516 40.9093 147.511 41.152C147.516 41.3947 147.565 41.6093 147.658 41.796C147.756 41.9827 147.891 42.1297 148.064 42.237C148.237 42.3443 148.435 42.398 148.659 42.398C148.883 42.398 149.081 42.3443 149.254 42.237C149.427 42.1297 149.56 41.9827 149.653 41.796C149.751 41.6093 149.8 41.3947 149.8 41.152C149.8 40.9047 149.751 40.6877 149.653 40.501C149.56 40.3143 149.427 40.1673 149.254 40.06C149.081 39.9527 148.883 39.899 148.659 39.899ZM149.8 39.283H150.605V44.358H149.8V39.283Z" fill="#3D0D75"/>
<defs>
<clipPath id="clip0_27_279">
<rect width="4.10256" height="6.5641" fill="white" transform="translate(64 37.218)"/>
</clipPath>
</defs>
</svg>
